<?xml version="1.0" standalone="no"?>
<svg viewBox="-305 -150 1500 1500" style="width: 585px; height: 585px; justify-content: center; align-self: center; transform: scale(1, 1);" xmlns="http://www.w3.org/2000/svg"><g transform="rotate(357 519.7896137237549 591.7932739257812)"><g transform="translate(0 459)"><path d="M971.081 233.472C956.802 234.874 942.523 236.274 928.243 237.676C859.855 242.901 791.494 253.813 723.63 260.362C721.94 257.612 718.633 258.065 716.625 259.976C709.853 259.383 702.263 254.207 696.129 259.591C695.93 259.563 695.731 259.53 695.529 259.511C684.607 238.548 677.058 216.189 669.73 193.8C665.054 180.035 658.761 166.71 647.133 157.468C627.289 143.693 581.822 115.76 558.52 116.934C558.134 112.762 556.189 108.462 552.995 105.684C560.034 93.6851 531.892 85.8561 529.907 87.2471C531.179 47.1591 512.322 12.3451 470.742 4.36214C433.492 -3.39986 380.509 -4.70386 360.475 34.2251C358.273 33.9771 335.762 33.8599 333.584 34.1039C330.197 29.8149 293.008 70.457 308.25 84.606C171.978 144.888 94.4928 137.695 56.7747 307.164C51.6756 323.084 51.3042 340.505 45.9198 356.07C26.7635 400.801 11.2258 448.432 7.35888 497.104C-1.98054 499.497 -3.05463 515.964 7.76329 518.346C11.8955 519.257 15.3509 520.501 18.364 522.86C16.0086 562.746 25.6553 653.86 31.7335 653.579C44.127 693.022 99.4086 704.154 138.546 690.293C131.799 702.986 138.546 710.967 138.546 717.749C279.373 723.077 433.353 720.008 574.141 727.315C592.15 727.059 611.092 731.738 628.855 729.045C639.688 726.448 639.706 709.415 628.718 707.309L676.731 696.881C675.658 696.476 696.522 682.598 712.291 656.665C726.969 627.655 716.979 592.637 723.63 561.081C775.574 556.833 828.377 555.017 879.753 546.22C886.758 567.179 917.082 542.113 926.721 532.03C926.709 532.014 926.697 531.999 926.685 531.983C931.349 530.707 935.09 526.335 935.215 521.159C938.486 516.485 939.173 509.897 936.036 505.38C950.414 422.412 972.335 337.7 980.258 253.952C983.058 253.332 985.696 252.104 987.932 250.212L987.751 250.031C991.54 245.807 992.277 238.516 985.96 234.927C980.865 232.029 976.611 232.928 971.081 233.472Z" transform="translate(25.00024 -24.00044)" fill="#FFFFFF" stroke="none"></path><path d="M369.072 6.18403C373.315 -4.47897 387.658 -0.33397 386.059 10.868C385.102 17.578 381.427 24.665 378.126 30.546C375.438 35.333 372.372 40.005 368.215 43.593C375.615 50.497 383.296 57.149 391.172 63.465C399.766 70.356 408.803 76.708 418.144 82.546C426.335 87.666 434.896 92.202 442.617 98.044C449.796 103.475 456.336 110.007 459.664 118.534C463.209 127.614 461.668 136.992 459.058 146.066L458.758 147.092C456.091 156.082 451.474 166.919 457.876 175.389C461.135 179.701 465.873 182.755 469.964 186.202C473.6 189.266 477.013 192.598 480.143 196.177C486.968 203.979 492.519 212.758 496.022 222.54L496.335 223.429C499.338 232.088 501.532 242.696 497.475 251.198C496.311 253.635 492.557 252.843 491.905 250.47C490.431 245.094 490.508 239.464 489.272 234.012C487.986 228.342 485.846 222.96 483.051 217.868C477.643 208.017 470.319 199.603 461.666 192.489L459.076 190.383C452.326 184.843 446.124 178.966 444.754 169.798C443.288 159.989 447.218 150.645 449.745 141.361C451.506 134.891 452.081 128.689 450.178 122.842C447.853 126.637 444.681 130.239 442.172 133.452C437.175 139.853 432.131 146.215 427.1 152.589C421.942 159.125 416.911 165.764 412.12 172.575C409.977 175.622 407.857 178.687 405.744 181.755C404.155 184.061 401.939 186.365 400.207 188.717C400.628 189.975 400.596 191.425 399.833 192.455C390.648 204.865 377.581 178.971 374.173 172.429C367.233 159.106 362.068 144.952 355.105 131.632C347.89 117.824 339.674 104.384 330.517 91.778C324.978 84.153 318.77 76.991 313.703 69.124C301.766 79.948 286.058 87.204 271.63 93.784C255.777 101.013 239.308 106.918 223.055 113.188L218.254 115.053C190.249 125.983 161.56 137.99 138.283 157.403C110.93 180.216 94.7478 212.012 82.7008 244.938C68.8328 282.843 57.3598 321.771 46.6648 360.674C41.1918 380.579 35.9988 400.574 31.1168 420.633C26.8148 438.305 23.2488 456.153 18.2688 473.643C28.3688 473.286 39.8878 477.196 48.5108 478.325C87.8098 483.469 126.58 491.669 163.683 505.866C168.266 507.62 169.592 512.197 168.594 515.907C171.237 515.161 173.878 514.405 176.521 513.663C173.625 509.226 175.007 501.294 175.235 496.376L175.249 496.038C175.483 489.485 176.194 482.925 176.655 476.384C177.533 463.915 178.675 451.537 180.195 439.14L180.583 436.04C182.305 422.552 183.578 408.985 185.457 395.52L185.679 393.979C184.778 390.534 183.729 387.131 182.628 383.743C179.694 374.718 175.553 366.223 171.924 357.482C171.496 356.453 172.962 355.862 173.647 356.479C179.793 362.008 184.675 369.022 188.597 376.358C188.665 376.012 188.725 375.665 188.796 375.319L189.243 373.116C190.347 367.744 191.689 362.092 194.985 357.735C195.336 357.272 196.03 357.175 196.362 357.735C199.516 363.072 199.869 369.831 200.354 375.904C200.903 382.774 200.972 389.731 200.875 396.62C200.686 410.083 199.737 423.584 198.981 437.025C198.239 450.233 196.783 463.274 194.906 476.352L194.549 478.805C193.631 485.03 192.88 491.333 191.67 497.515L191.328 499.198C190.681 502.264 190.283 506.587 188.995 510.178C222.133 500.935 255.322 491.903 288.574 483.03C312.607 476.616 336.665 470.298 360.713 463.94C361.982 461.653 363.562 459.517 365.534 457.608C372.031 451.316 380.641 448.509 388.538 453.352C389.18 453.747 389.234 454.753 388.538 455.134C387.025 455.961 385.509 456.809 384.02 457.693L398.46 453.782C409.253 450.857 420.175 447.202 431.222 445.163C451.569 435.122 473.453 427.854 494.887 420.671L497.413 419.817C508.387 416.075 519.739 411.886 531.078 409.812C539.379 408.294 549.123 410.126 552.461 418.63C556.687 421.415 560.663 424.688 564.5 427.907C567.274 430.233 569.933 432.706 572.637 435.114L573.135 435.552C575.346 437.47 577.097 438.754 577.64 441.807C577.92 443.384 576.918 445.516 574.973 445.307C569.022 444.67 564.183 437.772 560.147 433.653C557.029 430.469 553.886 427.177 551.04 423.678C549.381 424.581 547.107 424.419 546.051 422.419C540.575 412.05 525.574 419.235 517.274 421.694L505.384 425.213C499.439 426.975 493.497 428.746 487.565 430.548C471.261 435.499 455.037 441.04 438.585 445.587C440.057 447.205 439.854 450.083 437.058 451.178C424.18 456.231 410.052 458.844 396.673 462.311C388.226 464.502 379.784 466.706 371.345 468.923C369.898 471.267 368.857 473.919 368.419 477.006C366.808 488.357 369.914 501.453 372.94 512.431L373.396 514.069C375.883 522.895 379.542 533.715 387.157 539.288C389.016 540.647 391.383 541.593 393.769 541.807C408.676 534.134 423.582 526.462 438.497 518.804C441.26 517.385 443.813 519.306 444.433 521.59C449.692 520.727 454.939 519.367 459.718 517.745C467.748 515.018 474.018 509.817 481.546 506.22C496.112 499.262 510.987 507.809 524.028 514.307L527.034 515.784C532.882 518.622 545.05 524.073 547.856 516.312C550.57 508.804 541.989 500.78 536.447 497.401C529.841 493.372 522.149 491.216 514.683 489.42C510.42 488.394 506.105 487.557 501.764 486.946C496.84 486.253 491.754 486.357 487.013 484.76C484.657 483.968 484.295 480.226 487.013 479.608C494.311 477.947 503.021 479.759 510.637 481.61L514.618 482.591C522.291 484.474 530.038 486.837 537.027 490.593C542.109 493.325 547.473 497.475 550.977 502.555C554.02 499.728 557.807 499.824 561.752 500.872L563.893 501.468C567.429 502.447 570.295 503.122 573.736 502.443C574.196 499.94 574.662 497.436 575.161 494.932C580.064 470.318 585.441 445.798 591.374 421.409C601.608 379.341 613.45 337.735 626.8 296.556L628.14 292.439C631.219 283.02 633.697 272.758 638.661 264.105C643.356 255.923 650.878 251.21 659.815 248.714C669.957 245.882 680.614 244.4 690.96 242.487C693.268 242.061 695.582 241.656 697.892 241.237C695.94 237.712 694.483 233.711 693.17 230.641L692.94 230.109C690.12 223.68 687.587 217.136 685.141 210.556L683.312 205.61C678.895 193.699 674.336 181.984 668.127 170.844C661.591 159.12 652.92 149.535 642.111 141.602C620.073 125.426 593.51 117.175 572.135 99.888C571.259 99.18 572.382 97.969 573.271 98.417C587.704 105.669 603.285 110.6 618.297 116.504L621.258 117.672C633.124 122.376 645.174 127.497 655.444 135.112C666.894 143.604 675.912 154.15 682.69 166.691C689.37 179.053 693.643 192.89 698.356 206.094L699.616 209.612C701.517 214.888 703.481 220.148 705.731 225.282C707.517 229.358 710.85 234.011 712.365 238.667C716.51 237.948 720.654 237.227 724.803 236.534C814.67 221.53 905.541 212.714 996.614 210.135C1000.18 210.034 1002.02 213.434 1001.49 216.542C992.755 268.223 984.988 320.081 976.466 371.801C972.746 394.374 968.952 416.93 965.069 439.475C963.102 450.897 960.828 462.275 958.965 473.714C957.461 482.952 956.369 492.262 953.787 501.286C951.471 509.377 947.917 517.179 942.08 523.352C935.788 530.006 927.006 533.227 918.166 534.749C895.725 538.611 872.707 540.188 850.084 542.761L729.637 556.464C731.397 572.463 731.529 588.212 730.721 604.397L730.261 613.233C729.884 620.339 729.435 627.457 728.414 634.49C727.134 643.313 723.098 650.784 717.153 657.374C711.694 663.426 705.062 668.59 698.611 673.538C691.915 678.676 684.996 683.635 677.123 686.812L676.101 687.218C669.194 689.914 656.237 694.09 646.797 692.564C648.031 698.747 650.419 705.395 648.302 711.513C647.32 714.354 643.605 715.771 641.329 713.354C636.82 708.563 636.468 702.235 635.4 695.985C634.289 689.481 633.331 682.954 632.48 676.411C630.834 663.76 629.553 650.993 629.162 638.235C628.76 625.133 628.915 612.013 629.621 598.925C629.984 592.204 630.434 585.487 631.287 578.809C631.651 575.961 632.023 573.111 632.448 570.27C632.603 569.234 632.775 568.203 632.96 567.174L622.149 568.394C605.572 570.244 588.988 571.915 572.294 572.175C570.317 572.205 568.796 571.305 567.802 569.994C566.743 571.719 564.899 572.953 562.258 572.943C538.945 572.856 517.235 565.233 496.031 556.249C485.343 551.719 474.821 546.815 464.117 542.324C454.126 538.132 443.445 535.141 433.695 530.419L408.075 543.857C407.887 544.518 407.646 545.143 407.39 545.666C405.722 549.071 402.433 550.918 399.074 552.309C395.85 553.647 392.511 554.063 389.258 553.725C369.828 563.907 350.393 574.079 330.945 584.228L311.493 594.368C272.737 614.547 234.134 635.057 195.134 654.762L192.263 656.207C178.792 662.962 164.327 669.809 149.378 674.918C149.112 678.702 149.28 682.382 149.597 686.387L149.673 687.259C150.119 691.992 151.075 697.923 147.278 701.292C145.303 703.044 141.775 703.051 140.432 700.409C137.995 695.618 140.183 688.065 140.955 682.86C141.229 681.009 141.563 679.106 142.057 677.26C124.919 682.362 107.262 684.836 89.8218 681.971C72.8418 679.184 59.6908 668.487 49.0888 655.403C37.8998 641.596 29.9488 625.505 25.6828 608.256C20.8278 588.628 20.5108 568.358 20.6248 548.253C20.7458 526.844 21.5378 505.329 24.1418 484.064C21.2888 483.393 18.1248 482.813 15.2418 483.013C13.8138 485.298 11.0438 486.26 8.5408 485.963C3.0978 491.966 16.9038 498.101 21.3158 499.637C22.8478 500.171 22.6838 502.659 20.9168 502.584L19.8038 502.531C12.9864 502.168 5.94317 501.004 1.9348 494.669C-1.2772 489.591 -0.312196 483.575 3.5168 479.434C6.0458 455.522 12.0918 432.237 17.7188 408.911C23.2408 386.016 29.3818 363.268 35.8908 340.635L38.8088 330.505C49.0571 295.016 59.7692 259.241 73.9058 225.163C80.9648 208.147 89.0968 191.444 100.12 176.607C110.395 162.776 122.526 150.941 136.47 140.833C162.465 121.987 192.967 110.6 222.937 99.7515L224.279 99.266C239.81 93.648 255.303 87.963 270.657 81.876C284.236 76.493 297.245 69.668 310.76 64.204C310.321 63.407 309.897 62.601 309.489 61.786L309.239 61.9962C309.196 62.0301 309.152 62.063 309.107 62.094C307.748 63.036 305.747 62.573 304.627 61.516C301.464 58.532 302.535 55.2195 304.646 52.1249L304.921 51.731C307.503 48.114 309.806 44.29 312.189 40.542L313.681 38.1982C317.681 31.9365 321.884 25.6331 327.218 20.458C329.688 18.06 332.392 16.266 335.257 14.929C335.012 14.411 337.16 13.352 337.769 13.885C346.846 10.563 357.289 11.259 367.185 12.175M723.809 557.126L711.189 558.561C697.305 560.141 683.415 561.668 669.524 563.181L639.352 566.46C639.275 568.18 639.066 569.862 639.028 571.161C638.831 577.858 638.684 584.558 638.545 591.257C638.266 604.685 638.572 618.126 639.456 631.528C640.313 644.514 641.441 657.502 643.195 670.401L643.554 672.979L643.762 674.335C645.193 674.473 646.599 675.153 647.768 676.55C650.32 679.597 659.561 676.635 663.17 675.351C669.105 673.239 674.694 669.671 679.851 666.093C684.887 662.599 689.422 658.526 693.78 654.234L697.345 650.708C700.892 647.183 704.443 643.428 706.616 638.995C709.563 632.983 709.944 625.603 710.808 619.055C711.872 611.001 713.139 602.948 714.478 594.934M357.454 472.584L356.145 472.928C308.594 485.563 261.114 498.571 213.417 510.648C189.813 516.626 166.097 522.169 142.464 528.032L138.638 528.989C119.994 533.701 101.126 539.372 86.8488 552.895C86.3218 553.393 85.5568 552.628 86.0528 552.099C101.44 535.719 123.324 528.785 144.336 522.774C148.22 521.663 152.109 520.578 155.994 519.473C127.418 509.286 98.3908 500.423 68.6938 494.102C61.0468 492.474 53.3108 491.279 45.6698 489.645C40.3409 488.505 35.1367 486.857 29.8641 485.489L25.7168 484.446L25.6617 497.554C25.5927 516.119 25.6257 534.669 26.5728 553.231L26.7521 556.67C27.8572 577.327 29.5821 598.413 36.9128 617.891C42.8698 633.719 52.3648 648.63 64.7818 660.159C71.0648 665.992 77.8198 670.533 86.1698 672.775C93.9228 674.856 102.046 675.1 110.016 674.545C148.245 671.878 182.275 651.111 215.483 633.917C269.8 605.794 324.123 577.685 378.495 549.67C377.025 548.665 375.641 547.507 374.382 546.206C367.091 538.676 363.245 528.368 360.719 518.385C358.03 507.759 356.422 496.37 356.235 485.4M426.637 560.526C427.117 560.268 427.673 560.591 427.695 561.133C427.863 565.286 425.568 569.382 423.853 573.123L423.672 573.522C421.589 578.156 419.308 582.728 416.949 587.228C412.234 596.219 407.334 605.114 402.22 613.883C391.936 631.524 380.508 648.422 367 663.782C363.949 667.252 358.931 662.803 360.889 659.067C370.329 641.057 381.334 624.052 392.662 607.195C398.333 598.755 404 590.307 409.727 581.905C412.116 578.399 414.536 574.906 417.021 571.466L418.52 569.408M990.592 220.45C942.875 221.891 895.214 225.003 847.724 229.88C803.558 234.415 759.554 240.452 715.798 247.978C706.659 249.55 697.531 251.186 688.414 252.887L682.946 253.915C673.828 255.643 662.689 256.356 654.571 261.227C646.012 266.362 643.699 277.094 640.851 285.944C637.503 296.352 634.24 306.79 631.065 317.253C618.457 358.796 606.94 400.699 596.666 442.879C591.566 463.816 587.041 484.87 582.273 505.883C578.037 524.553 573.363 543.012 568.48 561.495C569.082 561.027 569.82 560.671 570.711 560.481C594.959 555.322 619.71 553.08 644.321 550.23L646.702 549.952C672.161 546.958 697.62 543.986 723.094 541.122L891.753 522.155C901.7 521.037 912.356 520.885 922.036 518.216C938.494 513.676 942.351 495.276 945.112 480.623L945.196 480.18C953.521 435.907 960.148 391.249 967.912 346.864M572.405 510.029C565.857 509.597 556.895 503.6 551.927 504.03C554.535 508.406 555.712 513.397 554.209 518.727C550.026 533.559 531.109 525.885 521.997 521.354C514.526 517.637 507.312 513.089 499.041 511.348C489.671 509.378 483.323 513.104 475.407 517.399C468.905 520.926 461.824 523.459 454.542 524.77C450.67 525.468 446.992 525.542 443.321 525.27C443.1 525.45 442.851 525.617 442.567 525.766L440.625 526.785C449.406 527.187 458.35 529.897 466.522 532.378C474.99 534.948 483.303 538.046 491.572 541.214L499.706 544.341C519.772 552.024 540.542 559.321 562.258 559.257C563.819 559.253 565.098 559.685 566.105 560.39M535.769 463.555C542.238 462.764 548.209 463.612 553.378 467.823C559.612 472.901 563.8 481.323 572.762 481.876C575.375 482.037 575.982 485.711 573.385 486.479C566.714 488.454 561.313 484.845 556.768 480.159L553.712 476.966C549.221 472.316 545.078 468.72 537.457 468.998C529.295 469.296 521.119 471.182 513.01 472.141C503.824 473.227 494.64 474.153 485.425 474.952C484.997 474.989 484.924 474.315 485.325 474.216L495.646 471.647M529.525 437.109L530.592 437.002C539.985 436.09 548.576 436.055 556.966 441.108L558.575 442.081C566.139 446.678 574.372 452.094 579.102 459.538C579.876 460.757 578.597 462.19 577.302 461.88C568.211 459.698 561.565 453.028 553.92 448.036C545.34 442.434 536.477 443.358 526.694 444.228C517.222 445.071 507.755 446.229 498.376 447.808C489.563 449.29 480.722 451.63 471.82 452.376L471.822 452.358C470.805 452.356 470.225 450.829 471.262 450.311C480.296 445.8 490.759 443.665 500.586 441.604M814.89 344.264C813.982 339.921 819.324 337.907 821.799 341.352L822.326 342.079C827.675 349.407 835.411 358.603 835.018 367.923C839.72 368.026 844.595 370.883 846.427 375.126C847.273 377.089 847.561 379.415 847.374 381.823C851.648 382.155 856.309 384.961 858.922 387.693C863.253 392.222 863.594 398.622 860.488 403.914C853.713 415.45 838.914 419.646 826.421 420.583L825.976 420.615C813.072 421.507 794.478 421.266 785.63 410.195C777.095 399.516 786.528 390.87 796.201 386.175C793.683 383.876 792.379 380.579 793.605 377.102C795.758 370.991 803.359 368.63 807.654 364.382C812.889 359.202 816.349 352.097 814.97 344.669M821.982 353.655C820.558 359.839 817.063 365.495 812.193 369.977C810.331 371.691 808.294 373.217 806.13 374.528L805.87 374.679C803.95 375.757 799.229 377.777 799.592 380.196C799.966 382.682 807.657 386.573 809.753 386.575C810.23 386.575 810.5 387.32 810.013 387.536C806.214 389.214 802.896 389.933 799.182 388.16C796.7 390.694 794.289 393.316 791.901 395.915C787.677 400.514 789.122 405.37 794.112 408.794C802.13 414.296 814.318 414.162 823.673 413.762C833.089 413.36 843.154 411.26 850.509 404.988L850.83 404.709C854.827 401.154 858.478 395.13 852.357 391.706C849.959 390.365 847.37 390.444 845.094 389.792C842.964 393.967 839.508 397.311 835.292 397.956C831.885 398.477 829.539 394.195 832.638 392.146L833.334 391.714C837.226 389.23 840.547 385.404 840.459 380.421C840.399 376.962 835.569 372.594 832.422 375.844L832.279 375.999C829.645 378.967 825.008 375.227 826.739 371.938L826.823 371.789M207.862 181.676C207.85 180.933 208.895 180.655 209.26 181.298C215.372 192.051 218.568 205.232 221.824 217.079C225.233 229.489 227.986 242.025 230.46 254.653C235.468 280.224 238.137 305.648 238.319 331.71C238.343 335.431 232.281 336.421 231.688 332.608C227.751 307.257 223.979 281.88 220.012 256.536C218.016 243.789 215.693 231.091 213.471 218.382M268.371 200.405C267.921 198.922 270.078 198.426 270.63 199.782C282.896 229.891 287.051 264.013 279.176 295.778C277.97 300.637 270.854 298.532 271.763 293.734M426.588 173.651C426.526 172.541 427.967 172.366 428.51 173.13C434.322 181.319 436.733 192.286 446.93 196.518C452.021 198.631 457.75 198.263 462.248 201.832C465.255 204.219 467.561 207.987 465.304 211.602C464.576 212.77 462.538 213.355 461.55 212.086C460.108 210.237 459.345 208.023 457.386 206.637C454.623 204.682 450.897 204.561 447.729 203.642C443.631 202.454 440.019 200.375 437.061 197.286M523.686 37.0674C524.285 36.7624 524.86 36.9574 525.243 37.4754C525.79 38.2134 525.723 38.9314 525.053 39.4374C525.948 41.2664 527.005 45.8484 527.156 46.5154C527.768 49.2194 528.419 51.9074 529.1 54.5934C530.474 60.0104 531.678 65.4694 533.053 70.8884C534.511 76.6324 536.248 82.3154 538.181 87.9164C538.306 88.2791 538.443 88.6493 538.587 89.025L538.807 89.5924L538.861 89.5064C539.254 88.8854 540.072 89.3194 539.975 89.9754C539.885 90.5734 539.764 91.1684 539.662 91.7664L539.865 92.3022C541.129 95.7053 541.995 99.2895 539.675 102.292C538.807 103.415 537.852 104.08 536.662 104.278C534.754 110.568 532.36 116.741 529.797 122.669L529.046 124.401C525.276 133.051 521.255 141.587 515.252 148.951C508.698 156.991 499.683 162.481 493.974 171.291C491.318 175.389 489.47 179.698 487.97 184.326L487.406 186.083C486.341 189.357 485.113 192.529 482.042 194.449C481.062 195.061 479.594 194.866 478.804 194.031C472.507 187.37 479.099 174.932 482.896 168.483C488.174 159.515 495.813 153.778 503.462 147.012C511.707 139.719 516.966 129.963 522.053 120.352C525.169 114.464 528.177 108.449 531.344 102.535C528.035 99.6111 526.976 93.8021 525.855 89.7645L525.753 89.4024C523.9 82.9364 522.428 76.3024 521.498 69.6394C520.603 63.2328 520.23 56.9184 520.466 50.4759L520.535 48.8348M535.988 67.5592C535.257 66.5572 536.467 65.4222 537.47 65.6312C543.569 66.8922 549.531 70.5835 555.004 73.5683L555.588 73.8852C559.957 76.2412 564.353 79.1272 566.647 83.7042C569.142 88.6788 568.937 94.4084 568.597 99.8144L568.564 100.32C568.147 106.803 568.08 113.539 566.708 119.905C566.006 123.163 563.055 124.081 560.532 123.311C557.53 132.79 549.097 139.774 542.937 147.254C535.083 156.79 536.561 169.665 537.382 181.15C537.714 185.8 531.93 187.122 528.951 184.641L522.086 178.939C520.943 177.987 519.801 177.034 518.662 176.076C517.687 175.256 516.721 174.429 515.762 173.591L514.33 172.327C513.695 171.759 510.894 168.63 510.075 168.5C508.092 168.185 503.379 173.413 501.766 175.053L501.561 175.257C498.525 178.234 495.782 181.437 493.227 184.834C492.757 185.458 491.838 184.94 492.174 184.219C494.464 179.315 497.126 174.626 500.287 170.238L500.925 169.364C503.028 166.53 505.851 161.526 509.563 160.689C514.096 159.668 518.622 164.213 521.92 166.736L522.128 166.894C523.697 168.071 525.248 169.269 526.796 170.475C526.634 161.924 527.714 153.284 532.129 145.915C535.242 140.718 539.906 136.869 543.897 132.403C548.34 127.43 550.66 121.318 554.682 116.139C555.2 115.473 555.914 115.114 556.687 115C556.842 110.837 557.455 106.632 557.929 102.513L558.066 101.28C558.545 96.8052 559.677 91.3392 557.486 87.1482C555.417 83.1897 550.668 80.3955 547.152 77.7097L544.28 75.4825M338.074 20.241C336.238 21.303 334.522 22.624 332.965 24.275C328.064 29.474 324.56 35.944 321.15 42.168C319.314 45.52 317.544 48.909 315.693 52.253C314.888 53.708 314.06 55.147 313.223 56.584C312.836 57.246 311.686 58.562 311.116 59.373C311.749 60.2604 312.404 61.1342 313.072 61.9986C313.327 62.3284 330.908 81.4797 337.036 88.975C346.42 100.456 354.808 112.583 361.979 125.563C369.001 138.274 374.347 151.732 380.852 164.689C384.108 171.176 387.744 177.617 392.379 183.231C392.558 183.45 392.747 183.657 392.93 183.873C394.699 179.094 399.232 173.977 401.458 171.039L401.666 170.762C406.715 163.956 412.047 157.355 417.495 150.866C422.471 144.941 427.573 139.143 432.799 133.442L434.765 131.308C438.406 127.375 443.031 121.49 448.361 118.68C447.79 117.662 447.129 116.655 446.369 115.661C441.375 109.135 434.315 104.399 427.35 100.126L422.832 97.3781C405.804 87.0013 389.042 76.1436 374.259 62.661C366.438 55.527 358.725 48.054 352.151 39.733L349.826 36.7909M366.486 15.104C358.512 15.773 349.901 15.614 342.532 18.212C349.083 24.405 355.31 31.092 361.707 37.389C362.276 33.13 363.44 28.923 364.426 24.77" transform="translate(18.9997 -5.000531)" fill="#000000" stroke="none"></path></g><g transform="translate(225 0)"><g><g><path d="M361.406 119.845C361.07 107.887 343.677 102.922 338.652 114.765C338.34 115.082 338.001 115.387 337.683 115.66C339.256 114.311 335.967 116.543 335.432 116.819C334.974 117.055 334.506 117.268 334.039 117.488C330.807 87.1942 319.835 54.5362 291.483 39.3302C251.939 20.1542 206.246 16.4112 162.863 18.3162C140.886 19.6202 115.508 23.1342 95.9827 12.0162C89.8987 8.55221 85.0217 3.09921 78.1467 0.958206C56.4437 -4.91279 46.5997 17.3732 49.5557 35.7002C40.2987 35.7732 31.1157 40.8982 27.1207 49.3362C24.7747 54.3302 24.8157 59.7192 22.7927 64.7312C16.5857 77.4412 7.70466 86.5772 12.7257 101.987C3.89466 112.036 8.92966 127.249 16.0557 136.87C19.5747 141.874 23.7657 146.678 26.3437 152.279C28.8457 157.642 25.0687 164.002 22.9667 169.086C7.42666 205.935 8.31466 246.516 16.6767 284.952C-0.103336 292.233 -5.13934 314.993 5.80266 329.324C9.56766 334.39 14.1607 336.27 19.3697 339.387C25.9617 343.015 20.5777 357.547 22.6887 364.565C25.5567 381.698 41.1567 392.249 56.5817 381.123C66.3697 379.642 74.2647 408.121 81.3727 415.269C85.7517 421.029 90.6137 426.201 95.8997 430.974C111.65 471.499 192.356 492.049 232.258 489.703C274.043 485.328 302.232 449.842 325.704 418.348C337.757 401.567 345.596 382.785 348.447 362.3C351.311 341.712 350.058 321.087 348.122 300.474C344.055 256.678 337.639 193.582 333.496 149.313C348.468 148.08 361.86 135.333 361.406 119.845L361.406 119.845Z" transform="translate(68.99953 24.00009)" fill="#FFFFFF" stroke="none"></path><path d="M0.486308 0.4125C0.472308 0.4745 0.493308 0.5215 0.507308 0.5875C0.510309 0.5685 0.513308 0.5585 0.518308 0.5355C0.506308 0.4855 0.497308 0.4525 0.486308 0.4125" transform="translate(103.5312 117.1017)" fill="#4F66AF" stroke="none"></path><path d="M0.6075 0.5795C0.5525 0.5215 0.4745 0.4785 0.3965 0.4205C0.3945 0.4225 0.3935 0.4245 0.3925 0.4265C0.4655 0.4745 0.5355 0.5295 0.6075 0.5795" transform="translate(103.4061 117.5714)" fill="#4F66AF" stroke="none"></path><path d="M92.577 3.59013C80.654 -3.49687 64.53 -0.209872 60.947 14.5061C59.697 19.6378 60.1842 25.0115 60.6693 30.362C60.9906 33.9063 61.3111 37.4404 61.125 40.8871C52.513 39.3501 43.208 41.7991 37.216 48.5231C31.175 55.3011 29.559 64.0491 31.536 72.1821C23.395 75.3081 16.656 82.0031 14.174 90.5871C12.097 97.7671 13.186 105.279 16.552 111.635C14.611 113.232 12.922 115.243 11.626 117.635C6.53997 127.02 10.733 137.6 17.31 144.99C23.604 152.062 31.758 157.155 40.617 160.673C29.005 176.821 22.67 197.235 19.61 216.484C17.726 228.335 16.987 240.437 17.595 252.427C17.92 258.847 18.773 265.271 19.792 271.615L19.8929 272.255C20.4939 276.122 21.0264 280.493 22.619 284.173C13.091 288.766 5.64997 297.603 2.10897 307.759C-3.55203 323.994 2.66097 342.547 15.044 353.963C18.125 356.803 21.558 359.387 25.262 361.358L28.283 363.017C27.9441 364.04 27.8327 366.443 27.7452 367.752L27.6685 368.732C27.0459 376.898 28.4666 385.823 33.292 392.582C39.001 400.577 48.369 404.03 57.964 401.933C62.199 401.007 66.164 398.759 69.061 395.553C71.237 393.144 72.355 390.591 72.522 387.986C76.081 402.915 84.156 416.486 93.813 428.277C98.785 434.347 104.173 440.023 110.077 445.194L110.471 445.543C111.051 446.062 111.68 446.647 112.351 447.27C117.257 451.829 124.35 458.421 130.226 456.126C132.278 455.324 133.955 453.651 133.909 451.289C133.762 444.012 124.16 440.168 119.098 436.173C113.169 431.494 107.497 426.414 102.224 421.008C92.6523 411.197 84.3739 400.367 75.9506 389.605L73.749 386.799C73.38 386.33 72.8 386.559 72.539 386.978C72.465 384.521 71.566 382.03 69.895 379.58C67.573 376.173 62.023 374.376 58.784 377.796L57.537 378.351C56.232 379.124 55.168 380.138 54.319 381.365L53.956 381.649C53.7649 381.793 53.538 381.955 53.2914 382.109L53.2151 382.153C53.3614 382.051 53.1985 382.079 52.9158 382.128C52.6581 382.172 52.3012 382.234 51.991 382.229L51.405 382.205L50.881 382.047C50.465 381.594 49.189 380.342 49.053 380.126C48.598 379.399 48.3359 378.728 48.0867 377.966L47.872 377.288C46.927 374.236 46.9669 370.97 47.144 367.798L47.2586 365.88C47.5235 361.147 47.4291 356.768 44.626 352.626C42.4652 349.433 39.3809 347.7 36.0209 346.11L34.7318 345.505C28.3201 342.423 23.3477 337.948 19.994 331.579C13.618 319.467 18.061 304.167 29.325 296.589C41.12 288.652 59.766 293.073 67.007 305.087C67.361 305.673 68.307 305.293 68.121 304.617C65.069 293.518 56.716 285.138 46.096 282.08C46.556 279.449 45.72 276.146 44.084 273.988C42.177 265.129 40.303 256.378 39.415 247.304C38.388 236.798 38.352 226.214 39.027 215.682C39.9438 201.349 42.9687 187.559 46.2336 173.76L48.698 163.4C54.858 165.152 61.178 166.259 67.321 166.808C74.473 167.446 81.554 167.387 88.58 166.822C94.807 183.737 94.57 202.998 86.875 219.518C84.1532 225.36 80.2374 231.124 76.2658 236.969C67.1003 250.459 57.6371 264.387 61.863 280.737C64.531 291.056 80.27 288.824 80.329 278.237C80.3893 267.581 84.1738 258.892 89.0596 249.694L90.1054 247.741C95.5851 237.494 100.225 227.382 101.767 215.724C104.007 198.789 100.497 181.302 92.11 166.496C121.985 163.38 150.9 151.553 180.07 145.199C202.315 140.354 227.239 139.305 247.589 151.123C247.962 151.339 248.257 150.798 247.92 150.556C219.564 130.105 182.84 133.008 150.325 140.215C145.116 141.37 139.86 142.651 134.57 143.941C108.19 150.372 80.9504 157.012 54.287 149.217C46.296 146.881 38.541 143.044 32.285 137.487C29.531 135.041 26.131 131.783 25.588 127.917C25.409 126.641 25.465 125.767 26.218 124.757C26.5906 124.257 27.0957 123.996 27.4385 123.819C27.8168 123.623 27.9974 123.529 27.584 123.33C36.885 127.813 44.845 114.756 35.77 109.325L35.4261 109.113C24.2485 102.032 30.002 85.8252 42.97 86.2301L43.2321 86.2346C50.5105 86.2564 52.6786 77.5533 48.612 72.6111L48.3869 72.3297C41.159 63.0212 53.521 51.7737 62.93 57.3711L63.1598 57.503C67.6081 59.9632 72.285 57.2242 73.968 52.8801C76.7438 45.7137 76.2934 38.3684 75.8399 30.971C75.6907 28.5375 75.5411 26.0984 75.506 23.6581L75.4905 22.6087C75.4656 20.2867 75.548 17.246 76.911 15.9011C80.043 12.8116 85.3277 16.4632 88.4321 18.7987L90.4298 20.3171C94.9581 23.8084 99.1961 27.6024 104.088 30.6221C109.427 33.9201 115.225 36.5421 121.114 38.6921C132.534 42.8611 144.819 44.7321 156.926 45.3231C173.3 46.1224 190.561 43.8137 207.958 41.4868C243.191 36.7744 278.978 31.9877 309.076 52.7941C319.733 60.1611 327.088 70.9331 330.883 83.2531C335.163 97.1461 333.697 111.534 337.199 125.475C338.737 131.598 349.44 132.385 350.397 125.475C350.527 124.539 350.688 123.587 350.85 122.628C351.256 120.23 351.669 117.785 351.62 115.419C351.544 111.731 350.724 107.868 350.213 104.219L349.99 102.659C349.077 96.4151 347.92 90.157 346.367 84.0471C343.045 70.9741 336.852 58.6601 327.241 49.0821C309.4 31.3021 283.294 24.0331 258.698 23.2631C242.089 22.7432 225.67 24.9303 209.249 27.1176C194.243 29.1164 179.235 31.1155 164.08 31.0491C151.039 30.9921 138.023 29.4011 125.684 25.0251C119.473 22.8221 113.587 19.7031 108.261 15.8191C102.904 11.9131 98.312 6.99813 92.577 3.59013ZM118.578 54.5781C116.779 53.8291 116.027 56.5131 117.349 57.4911C124.453 62.7431 133.173 65.0201 141.866 63.1291C144.697 62.5131 144.086 57.9481 141.181 58.0651C133.317 58.3791 125.906 57.6291 118.578 54.5781ZM291.607 65.7657C290.311 65.2647 288.941 67.0467 289.755 68.1757C293.486 73.3497 297.957 77.8747 301.778 82.9697C305.612 88.0807 308.814 93.4517 313.35 97.9987C315.784 100.439 319.929 97.9567 319.069 94.6697C315.813 82.2267 303.426 70.3337 291.607 65.7657ZM96.1019 73.7327C95.1539 72.7857 96.1079 70.8997 97.4699 71.3817C105.165 74.1067 112.918 76.4647 121.002 77.7017C125.984 78.4634 130.993 78.4186 136.007 78.3738C139.326 78.3441 142.647 78.3144 145.963 78.5187C149.33 78.7257 151.623 83.9637 147.88 85.5937C131.248 92.8347 108.658 86.2687 96.1019 73.7327ZM74.9896 99.28C73.2166 97.592 75.0606 94.714 77.3156 95.284C89.2086 98.295 100.987 101.957 113.352 102.321C119.528 102.502 125.669 102.015 131.787 101.216L134.884 100.805C139.655 100.182 144.508 99.6931 149.224 100.673C152.368 101.326 152.982 105.376 151.023 107.489C141.772 117.468 123.928 116.514 111.659 114.832C98.3356 113.004 84.8926 108.714 74.9896 99.28ZM280.182 101.687L280.075 101.681C279.266 101.683 278.835 102.921 279.453 103.447C284.735 107.943 289.893 112.926 293.644 118.808C295.466 121.663 296.988 124.707 298.09 127.913C299.291 131.411 299.68 135.037 301.395 138.345C304.269 143.889 311.971 140.792 312.358 135.375C312.943 127.204 306.118 118.016 300.71 112.448C295.095 106.666 288.178 102.72 280.182 101.687ZM236.288 107.192C235.543 106.98 235.006 108.139 235.746 108.477C254.141 116.891 268.093 130.319 278.983 147.145C280.015 148.738 281.572 149.205 283.364 148.927C284.317 148.779 284.818 148.29 285.325 147.628L285.682 147.145C286.459 146.079 286.356 144.306 285.682 143.229C274.628 125.576 256.129 112.858 236.288 107.192ZM368.572 111.808C370.253 108.961 374.71 109.534 375.597 112.726L375.725 113.004C376.204 114.092 375.986 114.315 375.093 113.699C377.305 115.521 378.306 118.235 377.63 121.153C373.978 136.913 356.127 148.167 340.565 146.618C339.207 146.483 339.022 144.814 340.253 144.316C346.24 141.892 351.554 137.955 355.827 133.124C359.98 128.428 361.727 123.055 363.961 117.384C364.799 115.255 366.103 113.722 367.94 112.885C368.183 112.549 368.395 112.191 368.572 111.808ZM373.024 134.504C377.942 130.418 385.689 134.18 384.023 140.907C382.21 148.233 374.358 153.239 367.876 156.249C361.204 159.346 354.705 159.943 347.426 159.605L347.336 159.585C349.357 167.688 350.503 176.111 352.049 184.263C354.011 194.605 355.941 204.952 357.842 215.304C359.681 225.31 362.006 235.329 363.419 245.385C364.844 255.536 366.212 265.694 367.612 275.848C369.948 292.807 371.834 309.844 373.823 326.851L374.77 334.902C376.762 351.941 378.365 369.002 374.591 385.959C371.054 401.851 363.086 416.675 353.844 429.941C344.793 442.931 334.682 455.421 323.583 466.72C302.174 488.511 275.774 505.964 244.818 509.201C231.489 510.595 217.253 509.044 204.722 504.199L203.89 503.874C191.205 498.865 175.671 490.29 172.37 476.219C170.343 467.587 179.238 460.848 187.037 464.944C190.65 466.842 193.367 469.011 196.333 471.73L196.86 472.216C199.284 474.467 200.217 475.159 203.014 476.92C208.751 480.529 213.051 482.237 219.567 483.877C231.581 486.899 244.547 486.421 256.743 482.847C282.637 475.259 302.725 455.459 319.934 435.606C329.278 424.825 338.147 413.516 344.987 400.951C352.164 387.768 355.477 373.927 355.278 358.927C355.053 342.002 352.714 325.011 351.179 308.166C349.615 290.993 348.169 273.826 346.895 256.629C345.701 240.502 345.586 224.302 345.169 208.125L345.087 205.092C344.842 196.504 344.672 187.913 344.477 179.323C344.431 177.299 344.358 175.269 344.286 173.236C344.05 166.664 343.814 160.067 344.488 153.555C344.551 152.934 345.388 152.777 345.592 153.405C346.112 155.003 346.567 156.626 346.997 158.258C347.063 158.208 347.137 158.163 347.227 158.132C352.931 156.172 358.184 152.259 362.464 148.039C366.548 144.012 368.681 138.113 373.024 134.504ZM36.792 318.206C44.688 314.342 54.046 314.956 61.933 318.618L62.4674 318.872C71.0783 323.047 82.4829 332.803 79.746 343.179C78.144 349.247 71.402 351.319 66.174 348.7C61.807 346.511 60.811 342.598 58.62 338.667C57.071 335.887 55.156 333.714 52.907 331.479C48.166 326.77 42.841 323.272 36.792 320.473C35.92 320.069 35.95 318.619 36.792 318.206Z" transform="translate(55.00003 15.00067)" fill="#000000" fill-rule="evenodd" stroke="none"></path></g></g><g transform="translate(159 186)"><g><path d="M30.8552 0.284389C38.3472 -0.854611 48.2682 1.30939 51.7612 8.92739C53.3172 12.3214 51.4742 16.0744 47.5512 16.2624C45.2969 16.3703 43.0978 16.3333 40.9433 16.2971C34.0368 16.1808 27.5885 16.0723 21.2452 20.7714C17.6638 23.425 14.6527 27.0992 12.1259 30.764L11.1699 32.1587L10.378 33.3078C8.66227 35.8303 7.03756 38.5709 7.29125 41.6144C7.36625 42.5154 6.44525 43.3704 5.57025 43.3344C0.116248 43.1104 -0.470752 36.2724 0.246248 32.1654C1.58025 24.5434 5.26925 17.3884 10.3822 11.6254C15.7522 5.57339 22.8412 1.50339 30.8552 0.284389ZM151.87 5.42689C145.818 4.93789 139.21 6.21389 134.044 9.53489C130.712 11.6769 126.944 16.4719 130.271 20.1519C130.813 20.7519 131.993 20.1239 131.681 19.3309C130.088 15.2799 140.94 15.2309 143.089 15.4139L143.684 15.4705C147.254 15.8464 150.894 16.8774 154.04 18.5789C157.232 20.3039 160.213 22.3289 162.565 25.1279C165.513 28.6319 166.477 32.7989 170.438 35.4799C174.122 37.9739 180.374 35.6019 181.187 31.1069C183.822 16.5319 163.803 6.38789 151.87 5.42689ZM160.774 62.6982L160.773 62.9235C160.686 69.3861 156.318 82.5333 147.866 82.5333C139.314 82.5333 137.684 68.0213 138.046 61.8852L138.097 61.1198C138.825 51.1814 142.274 41.7618 147.866 41.7618C157.046 41.7618 160.76 56.3214 160.774 62.6982ZM25.6175 64.9235L25.6162 64.6982C25.6302 58.3214 29.3442 43.7618 38.5243 43.7618C44.2593 43.7618 47.7411 53.6706 48.3439 63.8852L48.3648 64.3016C48.631 70.6522 46.8883 84.5333 38.5243 84.5333C30.0718 84.5333 25.7044 71.3861 25.6175 64.9235ZM122.515 105.602C122.392 108.007 121.556 110.507 119.748 113.039C110.636 122.601 97.7042 112.603 90.6366 107.139C90.2878 106.869 89.9534 106.61 89.6344 106.366C83.3436 102.333 76.2756 112.704 82.1122 117.412C131.136 153.708 151.031 87.567 112.634 80.97C108.406 80.243 106.836 84.9468 108.814 86.3667C114.647 89.9119 122.838 97.1039 122.523 105.438C122.487 105.449 122.449 105.462 122.408 105.476L122.046 105.606L122.046 105.862C122.139 105.805 122.238 105.762 122.328 105.703L122.515 105.602ZM122.515 105.602L122.691 105.506L122.814 105.432C123.008 105.306 122.911 105.308 122.523 105.438C122.521 105.492 122.518 105.547 122.515 105.602ZM77.237 145.626C60.152 142.068 39.527 143.059 27.281 157.289C15.604 170.857 17.589 190.909 28.418 204.336C40.024 218.727 59.961 223.621 77.703 222.74C88.7586 222.191 99.734 219.892 110.483 217.27L112.96 216.66L113.282 216.58C121.775 214.473 136.168 210.902 136.112 200.085C136.098 197.644 134.179 196.085 131.893 195.867C128.89 195.58 126.454 196.442 123.9 197.626L123.2 197.956L122.132 198.473L121.794 198.626C121.907 197.61 121.83 196.483 121.492 195.233L121.237 194.245C119.778 188.298 119.517 182.055 118.687 176.003C118.266 172.928 117.844 169.857 117.467 166.776C117.3 165.41 117.093 164.062 116.866 162.705C116.781 162.196 116.744 161.596 116.718 160.981C125.028 160.136 134.505 158.75 141.54 154.429C142.223 154.008 141.925 152.973 141.137 152.944C138.235 152.835 135.324 153.12 132.411 153.405C130.177 153.623 127.942 153.842 125.709 153.883C120.47 153.98 115.213 153.783 110.012 153.124C98.876 151.714 88.201 147.91 77.237 145.626ZM80.2623 159.354L85.358 160.088L86.6564 160.265C94.0151 161.243 101.385 161.793 108.787 161.541C108.345 163.254 108.072 167.063 107.863 168.823C105.904 168.465 95.485 168.998 93.939 169.16L89.5462 169.616L85.151 170.061C78.967 170.678 72.78 171.266 66.59 171.824L63.8913 172.072C53.9983 172.997 44.1346 174.109 34.307 175.565C35.104 171.423 37.238 167.567 41.03 164.611C51.4161 156.512 65.6227 157.386 78.2553 159.078L80.2623 159.354ZM107.852 203.317C105.99 186.824 85.7218 185.917 79.8911 196.376C77.3037 181.797 39.028 195.116 42.021 198.014C53.365 209 70.58 209.989 85.379 207.957C92.916 206.922 100.459 205.237 107.852 203.317Z" transform="translate(61.99985 58.00041)" fill="#000000" fill-rule="evenodd" stroke="none"></path></g></g><g transform="translate(123 338)"><g><path d="M139.816 13.717C129.739 8.099 118.659 0.831 106.945 0C99.8638 0.301 98.2868 8.676 103.541 12.571C112.734 17.702 123.938 19.63 133.062 25.271C142.406 30.48 152.448 34.35 161.965 39.125L162.042 39.1614C162.534 39.3518 163.134 38.7908 162.798 38.292L162.426 37.6664C156.692 28.0954 149.514 19.511 139.816 13.717ZM72.3164 13.8353C75.8244 12.5963 76.9034 8.3553 76.4764 5.6833C75.8314 1.6513 68.4234 -0.1757 64.9494 0.5823C46.0404 4.7043 -8.72363 30.5783 1.18937 36.7803L1.61737 36.9683C15.2644 30.1282 30.9104 25.4671 46.3249 21.1251L54.3496 18.8776C60.5403 17.1815 66.1532 16.0094 72.3164 13.8353Z" transform="translate(123 33.9998)" fill="#000000" fill-rule="evenodd" stroke="none"></path></g></g><g transform="translate(47 241)"><g><path d="M355.09 63.4319C352.262 71.1279 347.958 79.1399 342.695 85.6169C321.401 103.649 300.71 93.6649 290.204 69.2259C286.212 51.9549 296.811 33.3509 308.042 20.6459C324.262 4.38889 350.733 12.9209 358.191 32.2469C358.644 34.7509 358.918 37.2489 359.049 39.7389C358.894 47.8299 357.919 54.7449 355.09 62.4319M150.41 47.9109C178.462 14.5439 230.942 12.7599 229.603 64.1149C223.577 129.119 122.106 113.164 150.41 47.9109ZM363.913 20.0759C362.93 18.4109 361.839 16.7999 360.648 15.2589C360.208 14.9969 359.955 12.6729 358.337 12.5009C336.71 -11.3581 298.717 2.17889 284.989 25.9529C282.482 28.9589 280.437 32.4779 278.929 36.1959C265.403 33.7149 249.634 34.1969 237.054 39.3059C224.58 6.73389 186.815 3.82589 161.928 17.7429C146.449 25.3559 136.412 41.2989 121.358 50.0569C85.9688 52.6039 47.9878 44.6749 13.2378 53.5519C-14.1682 59.2499 8.74178 73.1269 13.3378 63.8659C46.1008 54.1859 84.9158 62.3659 118.933 60.1849C122.47 66.1679 129.253 71.0639 136.013 70.8549C143.314 135.576 237.698 124.844 240.954 67.3109C244.647 61.4719 249.24 55.8839 255.814 52.2459C258.331 51.7249 260.762 51.0479 262.984 49.9999C266.782 49.4639 272.634 51.0739 276.128 54.2359C288.097 126.052 357.052 117.688 369.375 54.7739C369.62 54.5239 370.305 53.5859 370.831 52.0809C375.049 46.5039 385.375 44.4309 383.725 35.0159C382.256 25.5989 370.364 25.7109 363.913 20.0759Z" transform="translate(11.99972 10.99992)" fill="#000000" stroke="none"></path></g></g></g></g></svg>